<?xml version="1.0" encoding="UTF-8" standalone="no"?>
<!-- Created with Inkscape (http://www.inkscape.org/) -->

<svg
   xmlns:dc="http://purl.org/dc/elements/1.1/"
   xmlns:cc="http://creativecommons.org/ns#"
   xmlns:rdf="http://www.w3.org/1999/02/22-rdf-syntax-ns#"
   xmlns:svg="http://www.w3.org/2000/svg"
   xmlns="http://www.w3.org/2000/svg"
   xmlns:sodipodi="http://sodipodi.sourceforge.net/DTD/sodipodi-0.dtd"
   xmlns:inkscape="http://www.inkscape.org/namespaces/inkscape"
   width="35.701111mm"
   height="35.701111mm"
   viewBox="0 0 126.5 126.5"
   id="svg3438"
   version="1.1"
   inkscape:version="0.91 r13725"
   sodipodi:docname="scissors-hand.svg">
  <defs
     id="defs3440" />
  <sodipodi:namedview
     id="base"
     pagecolor="#ffffff"
     bordercolor="#666666"
     borderopacity="1.0"
     inkscape:pageopacity="0.0"
     inkscape:pageshadow="2"
     inkscape:zoom="0.35"
     inkscape:cx="138.25"
     inkscape:cy="-8.1785747"
     inkscape:document-units="px"
     inkscape:current-layer="layer1"
     showgrid="false"
     fit-margin-top="0"
     fit-margin-left="0"
     fit-margin-right="0"
     fit-margin-bottom="0"
     inkscape:window-width="1280"
     inkscape:window-height="1376"
     inkscape:window-x="0"
     inkscape:window-y="27"
     inkscape:window-maximized="0" />
  <metadata
     id="metadata3443">
    <rdf:RDF>
      <cc:Work
         rdf:about="">
        <dc:format>image/svg+xml</dc:format>
        <dc:type
           rdf:resource="http://purl.org/dc/dcmitype/StillImage" />
        <dc:title></dc:title>
      </cc:Work>
    </rdf:RDF>
  </metadata>
  <g
     inkscape:label="Layer 1"
     inkscape:groupmode="layer"
     id="layer1"
     transform="translate(-236.75,-397.68363)">
    <g
       transform="translate(148,324.93363)"
       style="fill:none;stroke:#ffffff;stroke-width:2.5"
       id="g34">
      <circle
         style="fill:#008000"
         id="circle36"
         r="62"
         cy="136"
         cx="152" />
      <path
         inkscape:connector-curvature="0"
         id="path38"
         d="m 129.451,177.428 c 0.037,0.125 0.074,0.25 0.111,0.377 0.347,-0.069 0.732,-0.062 1.032,-0.219 1.572,-0.826 3.115,-1.705 4.685,-2.537 0.399,-0.212 0.848,-0.342 1.286,-0.469 1.049,-0.306 2.186,-0.426 3.143,-0.908 2.211,-1.114 4.389,-2.316 6.486,-3.631 5.509,-3.45 10.153,-7.999 15.156,-12.092 0.238,-0.195 0.445,-0.55 0.479,-0.852 0.107,-0.945 0.704,-1.481 1.458,-1.872 1.032,-0.535 2.072,-1.069 3.151,-1.494 3.74,-1.473 5.286,-6.582 2.404,-9.396 -0.46,-0.449 -0.387,-0.88 -0.05,-1.385 0.562,-0.839 1.105,-1.695 1.58,-2.585 0.6,-1.126 0.753,-2.332 0.309,-3.556 -0.598,-1.65 -1.888,-2.686 -3.312,-3.569 -1.104,-0.684 -2.238,-1.291 -3.623,-0.713 -0.182,0.076 -0.509,-0.197 -0.768,-0.309 0.106,-0.23 0.154,-0.537 0.333,-0.675 0.554,-0.43 1.131,-0.845 1.746,-1.18 4.056,-2.212 8.072,-4.402 11.717,-7.358 4.078,-3.309 8.643,-6.019 12.992,-8.995 1.087,-0.744 2.197,-1.461 3.221,-2.285 0.393,-0.316 0.727,-0.866 0.824,-1.361 0.497,-2.521 -1.862,-5.583 -4.9,-4.707 -3.012,0.869 -5.946,1.886 -8.638,3.542 -1.354,0.832 -2.793,1.524 -4.195,2.276 -5.15,2.763 -10.477,5.227 -15.073,8.931 -0.855,0.689 -1.822,1.239 -2.738,1.853 -0.639,0.428 -1.072,0.235 -1.374,-0.434 -0.654,-1.451 -0.594,-2.91 -0.089,-4.385 0.923,-2.692 1.679,-5.454 2.786,-8.067 1.946,-4.591 4.118,-9.085 6.163,-13.634 0.575,-1.28 1.168,-2.576 1.518,-3.926 0.387,-1.493 -0.071,-2.892 -1.327,-3.86 -1.234,-0.953 -2.634,-0.836 -3.887,-0.078 -0.816,0.495 -1.606,1.173 -2.154,1.949 -4.492,6.353 -9.061,12.663 -12.23,19.835 -0.952,2.156 -1.906,4.319 -3.005,6.401 -0.646,1.227 -1.472,2.402 -2.412,3.421 -1.118,1.212 -2.007,2.513 -2.736,3.989 -0.573,1.161 -1.353,2.244 -2.171,3.256 -1.29,1.596 -2.775,3.038 -4.028,4.661 -4.702,6.089 -9.329,12.237 -14.028,18.329 -0.54,0.7 -1.278,1.335 -2.058,1.748 -2.434,1.289 -4.933,2.456 -7.404,3.673 -0.211,0.104 -0.408,0.234 -0.611,0.353 0.017,0.104 0.033,0.208 0.05,0.312 0.266,-0.019 0.569,0.04 0.792,-0.068 2.479,-1.203 4.938,-2.45 7.42,-3.646 0.997,-0.48 1.766,-1.167 2.406,-2.063 1.14,-1.596 2.332,-3.155 3.502,-4.73 4.569,-6.154 9.084,-12.352 14.311,-17.979 1.038,-1.118 1.841,-2.334 2.499,-3.707 0.521,-1.089 1.139,-2.215 1.984,-3.049 1.493,-1.474 2.632,-3.13 3.477,-5.025 0.474,-1.062 1.021,-2.094 1.461,-3.169 3.215,-7.869 8.046,-14.777 12.899,-21.667 0.618,-0.878 1.425,-1.742 2.342,-2.271 2.154,-1.244 4.212,-0.088 4.383,2.385 0.046,0.674 -0.135,1.417 -0.399,2.05 -0.614,1.466 -1.286,2.914 -2.036,4.315 -3.499,6.536 -5.88,13.518 -8.225,20.514 -0.52,1.55 -0.414,3.092 0.341,4.551 0.521,1.006 1.032,1.193 2.005,0.613 1.182,-0.704 2.315,-1.497 3.428,-2.308 2.677,-1.95 5.401,-3.792 8.392,-5.269 3.62,-1.788 7.155,-3.756 10.67,-5.748 2.61,-1.479 5.393,-2.439 8.245,-3.298 2.199,-0.662 4.309,1.6 4.077,3.701 -0.056,0.512 -0.399,1.132 -0.809,1.439 -1.419,1.065 -2.934,2.002 -4.396,3.011 -4.061,2.801 -8.254,5.434 -12.12,8.481 -2.745,2.163 -5.592,4.057 -8.686,5.63 -0.955,0.486 -1.909,0.979 -2.827,1.531 -0.625,0.375 -1.226,0.816 -1.758,1.313 -0.221,0.206 -0.41,0.725 -0.3,0.942 0.186,0.363 0.586,0.67 0.966,0.86 0.229,0.115 0.593,-0.072 0.895,-0.062 0.593,0.019 1.296,-0.109 1.756,0.161 1.148,0.674 2.29,1.427 3.242,2.348 1.308,1.265 1.464,2.867 0.619,4.48 -0.549,1.049 -1.218,2.036 -1.894,3.149 -1.069,-0.872 -2.052,-1.679 -3.043,-2.475 -0.121,-0.098 -0.292,-0.135 -0.439,-0.2 -0.016,0.187 -0.117,0.453 -0.031,0.547 0.345,0.38 0.754,0.701 1.128,1.055 1.037,0.982 2.182,1.878 3.076,2.976 1.688,2.071 1.317,5.173 -0.689,6.936 -0.156,0.138 -0.362,0.342 -0.527,0.327 -1.581,-0.151 -2.884,0.441 -3.885,1.586 -0.852,0.975 -2.252,1.56 -2.329,3.138 -0.01,0.212 -0.313,0.435 -0.52,0.609 -2.689,2.279 -5.324,4.63 -8.095,6.808 -5.12,4.022 -10.171,8.112 -16.773,9.704 -2.246,0.541 -4.244,2.104 -6.354,3.2 z" />
      <path
         inkscape:connector-curvature="0"
         id="path40"
         d="m 129.451,177.428 c 2.109,-1.096 4.107,-2.659 6.351,-3.199 6.603,-1.592 11.653,-5.682 16.773,-9.704 2.771,-2.177 5.405,-4.528 8.095,-6.808 0.206,-0.174 0.51,-0.396 0.52,-0.609 0.077,-1.578 1.478,-2.163 2.329,-3.138 1.001,-1.145 2.304,-1.737 3.885,-1.586 0.165,0.016 0.371,-0.189 0.527,-0.327 2.007,-1.763 2.378,-4.865 0.689,-6.936 -0.895,-1.098 -2.039,-1.994 -3.076,-2.976 -0.374,-0.354 -0.783,-0.675 -1.128,-1.055 -0.086,-0.095 0.016,-0.36 0.031,-0.547 0.147,0.065 0.318,0.102 0.439,0.2 0.991,0.795 1.974,1.603 3.043,2.475 0.676,-1.114 1.345,-2.1 1.894,-3.149 0.845,-1.613 0.688,-3.215 -0.619,-4.48 -0.952,-0.921 -2.094,-1.674 -3.242,-2.348 -0.46,-0.27 -1.163,-0.142 -1.756,-0.161 -0.302,-0.01 -0.665,0.177 -0.895,0.062 -0.38,-0.189 -0.78,-0.497 -0.966,-0.86 -0.11,-0.217 0.079,-0.736 0.3,-0.942 0.532,-0.497 1.133,-0.938 1.758,-1.313 0.918,-0.552 1.872,-1.045 2.827,-1.531 3.094,-1.573 5.94,-3.467 8.686,-5.63 3.866,-3.047 8.06,-5.68 12.12,-8.481 1.463,-1.009 2.978,-1.945 4.396,-3.011 0.409,-0.307 0.753,-0.928 0.809,-1.439 0.231,-2.102 -1.878,-4.363 -4.077,-3.701 -2.853,0.858 -5.635,1.819 -8.245,3.298 -3.515,1.992 -7.05,3.96 -10.67,5.748 -2.99,1.477 -5.715,3.319 -8.392,5.269 -1.112,0.811 -2.246,1.604 -3.428,2.308 -0.973,0.58 -1.484,0.393 -2.005,-0.613 -0.755,-1.459 -0.86,-3.001 -0.341,-4.551 2.345,-6.996 4.726,-13.978 8.225,-20.514 0.75,-1.401 1.422,-2.849 2.036,-4.315 0.265,-0.632 0.445,-1.375 0.399,-2.05 -0.171,-2.473 -2.229,-3.629 -4.383,-2.385 -0.917,0.529 -1.724,1.392 -2.342,2.271 -4.854,6.891 -9.685,13.799 -12.899,21.667 -0.439,1.076 -0.987,2.107 -1.461,3.169 -0.845,1.895 -1.983,3.551 -3.477,5.025 -0.846,0.834 -1.463,1.96 -1.984,3.049 -0.658,1.372 -1.461,2.588 -2.499,3.707 -5.227,5.627 -9.742,11.826 -14.311,17.979 -1.17,1.575 -2.362,3.134 -3.502,4.73 -0.64,0.896 -1.409,1.583 -2.406,2.063 -2.482,1.196 -4.941,2.442 -7.42,3.646 -0.223,0.108 -0.526,0.049 -0.792,0.068 -0.017,-0.104 -0.033,-0.208 -0.05,-0.312 0.203,-0.119 0.4,-0.25 0.611,-0.353 2.472,-1.218 4.97,-2.384 7.404,-3.673 0.78,-0.413 1.518,-1.048 2.058,-1.748 4.699,-6.092 9.326,-12.239 14.028,-18.329 1.253,-1.623 2.738,-3.064 4.028,-4.661 0.818,-1.012 1.598,-2.095 2.171,-3.256 0.729,-1.476 1.618,-2.777 2.736,-3.989 0.94,-1.019 1.766,-2.194 2.412,-3.421 1.099,-2.083 2.053,-4.245 3.005,-6.401 3.17,-7.172 7.738,-13.482 12.23,-19.835 0.548,-0.776 1.338,-1.454 2.154,-1.949 1.253,-0.758 2.652,-0.875 3.887,0.078 1.256,0.968 1.714,2.367 1.327,3.86 -0.35,1.35 -0.942,2.646 -1.518,3.926 -2.045,4.549 -4.217,9.043 -6.163,13.634 -1.107,2.613 -1.863,5.375 -2.786,8.067 -0.505,1.475 -0.565,2.934 0.089,4.385 0.302,0.669 0.735,0.862 1.374,0.434 0.916,-0.613 1.883,-1.163 2.738,-1.853 4.597,-3.705 9.923,-6.168 15.073,-8.931 1.402,-0.752 2.842,-1.444 4.195,-2.276 2.691,-1.655 5.626,-2.673 8.638,-3.542 3.038,-0.876 5.397,2.186 4.9,4.707 -0.098,0.495 -0.432,1.045 -0.824,1.361 -1.023,0.824 -2.134,1.541 -3.221,2.285 -4.35,2.976 -8.914,5.686 -12.992,8.995 -3.645,2.957 -7.661,5.146 -11.717,7.358 -0.615,0.335 -1.192,0.75 -1.746,1.18 -0.179,0.139 -0.227,0.445 -0.333,0.675 0.259,0.111 0.586,0.384 0.768,0.309 1.385,-0.577 2.519,0.029 3.623,0.713 1.425,0.883 2.715,1.918 3.312,3.569 0.444,1.224 0.291,2.43 -0.309,3.556 -0.475,0.89 -1.019,1.746 -1.58,2.585 -0.337,0.505 -0.41,0.936 0.05,1.385 2.882,2.814 1.336,7.923 -2.404,9.396 -1.079,0.425 -2.119,0.959 -3.151,1.494 -0.754,0.39 -1.351,0.926 -1.458,1.872 -0.034,0.302 -0.241,0.656 -0.479,0.852 -5.003,4.093 -9.647,8.643 -15.156,12.092 -2.098,1.314 -4.275,2.517 -6.486,3.631 -0.957,0.482 -2.094,0.603 -3.143,0.908 -0.438,0.127 -0.887,0.257 -1.286,0.469 -1.569,0.832 -3.112,1.711 -4.685,2.537 -0.3,0.156 -0.686,0.149 -1.032,0.219 -0.034,-0.128 -0.071,-0.253 -0.108,-0.378 z" />
    </g>
  </g>
</svg>
