<?xml version="1.0" encoding="UTF-8" standalone="no"?>
<!-- Created with Inkscape (http://www.inkscape.org/) -->

<svg
   xmlns:dc="http://purl.org/dc/elements/1.1/"
   xmlns:cc="http://creativecommons.org/ns#"
   xmlns:rdf="http://www.w3.org/1999/02/22-rdf-syntax-ns#"
   xmlns:svg="http://www.w3.org/2000/svg"
   xmlns="http://www.w3.org/2000/svg"
   xmlns:sodipodi="http://sodipodi.sourceforge.net/DTD/sodipodi-0.dtd"
   xmlns:inkscape="http://www.inkscape.org/namespaces/inkscape"
   width="35.701111mm"
   height="35.701111mm"
   viewBox="0 0 126.5 126.5"
   id="svg3438"
   version="1.1"
   inkscape:version="0.91 r13725"
   sodipodi:docname="rock-hand.svg">
  <defs
     id="defs3440" />
  <sodipodi:namedview
     id="base"
     pagecolor="#ffffff"
     bordercolor="#666666"
     borderopacity="1.0"
     inkscape:pageopacity="0.0"
     inkscape:pageshadow="2"
     inkscape:zoom="0.35"
     inkscape:cx="147.21429"
     inkscape:cy="60.785706"
     inkscape:document-units="px"
     inkscape:current-layer="layer1"
     showgrid="false"
     fit-margin-top="0"
     fit-margin-left="0"
     fit-margin-right="0"
     fit-margin-bottom="0"
     inkscape:window-width="1280"
     inkscape:window-height="1376"
     inkscape:window-x="0"
     inkscape:window-y="27"
     inkscape:window-maximized="0" />
  <metadata
     id="metadata3443">
    <rdf:RDF>
      <cc:Work
         rdf:about="">
        <dc:format>image/svg+xml</dc:format>
        <dc:type
           rdf:resource="http://purl.org/dc/dcmitype/StillImage" />
        <dc:title></dc:title>
      </cc:Work>
    </rdf:RDF>
  </metadata>
  <g
     inkscape:label="Layer 1"
     inkscape:groupmode="layer"
     id="layer1"
     transform="translate(-227.78571,-466.64791)">
    <g
       transform="translate(-15.964286,134.89791)"
       style="fill:none;stroke:#ffffff;stroke-width:2.5"
       id="g20">
      <circle
         style="fill:#800000"
         id="circle22"
         r="62"
         cy="395"
         cx="307" />
      <path
         inkscape:connector-curvature="0"
         id="path24"
         d="m 280.285,439.183 c 0.03,0.134 0.06,0.269 0.09,0.403 0.339,-0.088 0.728,-0.097 1.009,-0.275 4.139,-2.636 8.358,-5.103 12.967,-6.862 3.311,-1.265 6.666,-2.418 9.691,-4.369 2.101,-1.355 4.33,-2.547 6.599,-3.601 3.21,-1.491 6.107,-3.383 8.576,-5.913 3.716,-3.808 7.806,-7.168 12.109,-10.287 1.609,-1.166 3.107,-2.489 4.617,-3.787 0.353,-0.302 0.546,-0.789 0.81,-1.193 0.592,-0.909 1.021,-2.001 1.805,-2.692 1.81,-1.599 2.23,-3.497 1.759,-5.729 -0.393,-1.855 -0.835,-3.702 -1.184,-5.565 -0.505,-2.705 -1.249,-5.311 -2.896,-7.567 -0.561,-0.769 -0.855,-1.555 -0.85,-2.537 0.005,-0.634 -0.273,-1.322 -0.589,-1.897 -1.51,-2.754 -3.35,-5.279 -5.578,-7.497 -0.438,-0.437 -0.472,-0.779 -0.372,-1.347 0.16,-0.912 0.456,-1.976 0.148,-2.761 -1.003,-2.561 -2.718,-4.478 -5.606,-5.05 -2.987,-0.591 -5.975,-0.425 -8.973,-0.149 -0.368,0.034 -0.838,0.008 -1.116,-0.192 -1.081,-0.776 -2.255,-0.806 -3.428,-0.449 -2.746,0.834 -5.104,2.35 -7.167,4.332 -0.196,0.189 -0.391,0.407 -0.509,0.648 -1.438,2.941 -3.719,5.24 -5.866,7.627 -3.646,4.051 -6.103,8.694 -7.333,14.001 -0.691,2.982 -1.408,5.958 -2.154,8.927 -0.215,0.854 -0.397,1.795 -0.893,2.483 -2.141,2.98 -4.857,5.244 -8.476,6.258 -1.824,0.512 -3.696,0.905 -5.458,1.582 -4.142,1.591 -8.233,3.313 -12.335,5.007 -0.217,0.09 -0.342,0.403 -0.51,0.612 0.08,0.073 0.159,0.146 0.238,0.218 0.279,-0.107 0.562,-0.207 0.837,-0.322 2.683,-1.124 5.338,-2.316 8.051,-3.358 2.652,-1.018 5.307,-2.12 8.06,-2.756 3.875,-0.895 6.882,-2.975 9.384,-5.901 0.652,-0.764 1.134,-1.753 1.438,-2.719 0.552,-1.747 0.899,-3.559 1.354,-5.338 0.697,-2.726 1.267,-5.495 2.156,-8.157 1.451,-4.34 4.064,-7.991 7.166,-11.332 1.393,-1.499 2.856,-3.03 3.829,-4.8 1.907,-3.47 4.975,-5.204 8.482,-6.432 0.954,-0.334 1.909,-0.21 2.807,0.396 0.365,0.247 0.904,0.345 1.359,0.332 2.111,-0.056 4.223,-0.287 6.329,-0.242 2.938,0.063 5.502,0.921 7.166,3.679 0.902,1.496 0.879,2.852 0.176,4.362 -1.303,-0.526 -2.649,-0.834 -3.62,-2.029 -0.421,-0.52 -1.319,-0.879 -2.016,-0.903 -1.488,-0.052 -2.985,0.154 -4.478,0.27 -0.58,0.045 -1.156,0.129 -1.734,0.194 -0.005,0.112 -0.009,0.224 -0.014,0.336 0.348,0.047 0.7,0.157 1.041,0.128 1.342,-0.119 2.678,-0.301 4.02,-0.424 1.575,-0.144 2.81,0.438 3.65,1.809 0.337,0.548 0.694,1.083 1.062,1.61 0.262,0.376 0.526,0.761 0.853,1.076 0.15,0.145 0.453,0.13 0.687,0.188 -0.082,-0.197 -0.132,-0.416 -0.251,-0.588 -0.361,-0.522 -0.749,-1.027 -1.127,-1.539 0.068,-0.076 0.137,-0.153 0.205,-0.229 0.824,0.441 1.804,0.724 2.443,1.353 2.285,2.243 4.165,4.82 5.652,7.662 0.262,0.5 0.313,1.109 0.462,1.668 -0.126,0.069 -0.252,0.14 -0.377,0.209 -0.684,-0.821 -1.517,-1.562 -2.016,-2.481 -0.755,-1.393 -1.797,-2.171 -3.341,-2.423 -1.232,-0.202 -2.444,-0.527 -3.668,-0.786 -0.103,-0.022 -0.222,0.035 -0.623,0.11 0.413,0.309 0.617,0.567 0.869,0.629 0.949,0.232 1.906,0.479 2.875,0.575 1.731,0.171 2.9,0.988 3.542,2.618 0.324,0.823 0.741,1.613 1.161,2.395 0.152,0.283 0.434,0.497 0.655,0.743 0.085,-0.052 0.17,-0.104 0.254,-0.154 -0.146,-0.375 -0.291,-0.749 -0.46,-1.181 1.78,1.413 3.998,5.225 4.074,7.05 -0.226,-0.365 -0.398,-0.645 -0.572,-0.925 -0.107,0.033 -0.215,0.066 -0.323,0.099 0.092,0.36 0.091,0.786 0.291,1.07 1.052,1.488 1.628,3.064 1.229,4.916 -0.119,0.549 0.019,0.991 0.773,0.6 0.173,0.778 0.314,1.468 0.48,2.15 0.54,2.224 0.09,4.092 -1.774,5.586 -0.598,0.479 -1.182,1.177 -1.396,1.888 -0.373,1.235 -1.149,2.062 -2.081,2.824 -0.783,0.641 -1.548,1.307 -2.368,1.896 -4.964,3.565 -9.674,7.424 -13.959,11.797 -1.877,1.916 -4.098,3.379 -6.521,4.565 -2.525,1.235 -4.971,2.635 -7.468,3.93 -2.169,1.124 -4.338,2.251 -6.552,3.28 -1.44,0.67 -2.958,1.173 -4.444,1.743 -4.567,1.751 -8.638,4.422 -12.814,6.904 z" />
      <path
         inkscape:connector-curvature="0"
         id="path26"
         d="m 280.285,439.183 c 4.176,-2.481 8.247,-5.152 12.819,-6.908 1.486,-0.57 3.004,-1.073 4.444,-1.743 2.214,-1.029 4.383,-2.156 6.552,-3.28 2.497,-1.295 4.942,-2.694 7.468,-3.93 2.423,-1.187 4.644,-2.649 6.521,-4.565 4.285,-4.373 8.995,-8.231 13.959,-11.797 0.82,-0.59 1.585,-1.256 2.368,-1.896 0.932,-0.762 1.708,-1.589 2.081,-2.824 0.215,-0.711 0.799,-1.409 1.396,-1.888 1.864,-1.494 2.314,-3.362 1.774,-5.586 -0.166,-0.683 -0.308,-1.372 -0.48,-2.15 -0.755,0.392 -0.893,-0.051 -0.773,-0.6 0.398,-1.852 -0.178,-3.428 -1.229,-4.916 -0.2,-0.284 -0.199,-0.71 -0.291,-1.07 0.108,-0.032 0.216,-0.065 0.323,-0.099 0.174,0.28 0.347,0.56 0.572,0.925 -0.076,-1.825 -2.294,-5.637 -4.074,-7.05 0.169,0.432 0.314,0.806 0.46,1.181 -0.084,0.051 -0.169,0.103 -0.254,0.154 -0.222,-0.246 -0.503,-0.46 -0.655,-0.743 -0.42,-0.781 -0.837,-1.571 -1.161,-2.395 -0.642,-1.63 -1.811,-2.447 -3.542,-2.618 -0.969,-0.096 -1.926,-0.343 -2.875,-0.575 -0.252,-0.062 -0.456,-0.32 -0.869,-0.629 0.401,-0.075 0.521,-0.133 0.623,-0.11 1.224,0.259 2.436,0.584 3.668,0.786 1.544,0.252 2.586,1.03 3.341,2.423 0.499,0.92 1.332,1.66 2.016,2.481 0.125,-0.069 0.251,-0.14 0.377,-0.209 -0.148,-0.559 -0.2,-1.168 -0.462,-1.668 -1.487,-2.842 -3.367,-5.419 -5.652,-7.662 -0.64,-0.629 -1.619,-0.911 -2.443,-1.353 -0.068,0.076 -0.137,0.153 -0.205,0.229 0.378,0.512 0.766,1.017 1.127,1.539 0.119,0.172 0.169,0.391 0.251,0.588 -0.233,-0.059 -0.536,-0.044 -0.687,-0.188 -0.326,-0.315 -0.591,-0.7 -0.853,-1.076 -0.368,-0.527 -0.726,-1.062 -1.062,-1.61 -0.841,-1.371 -2.075,-1.952 -3.65,-1.809 -1.342,0.123 -2.678,0.305 -4.02,0.424 -0.341,0.029 -0.693,-0.081 -1.041,-0.128 0.005,-0.112 0.009,-0.224 0.014,-0.336 0.578,-0.065 1.154,-0.149 1.734,-0.194 1.492,-0.115 2.989,-0.321 4.478,-0.27 0.696,0.024 1.595,0.384 2.016,0.903 0.971,1.195 2.317,1.503 3.62,2.029 0.703,-1.511 0.727,-2.866 -0.176,-4.362 -1.664,-2.758 -4.228,-3.615 -7.166,-3.679 -2.106,-0.045 -4.218,0.187 -6.329,0.242 -0.455,0.013 -0.994,-0.085 -1.359,-0.332 -0.897,-0.605 -1.853,-0.729 -2.807,-0.396 -3.508,1.228 -6.575,2.962 -8.482,6.432 -0.973,1.77 -2.437,3.301 -3.829,4.8 -3.102,3.341 -5.715,6.992 -7.166,11.332 -0.89,2.662 -1.459,5.432 -2.156,8.157 -0.455,1.779 -0.803,3.591 -1.354,5.338 -0.305,0.966 -0.786,1.955 -1.438,2.719 -2.502,2.927 -5.509,5.007 -9.384,5.901 -2.753,0.636 -5.407,1.738 -8.06,2.756 -2.713,1.042 -5.368,2.234 -8.051,3.358 -0.275,0.115 -0.558,0.215 -0.837,0.322 -0.079,-0.072 -0.158,-0.145 -0.238,-0.218 0.168,-0.209 0.293,-0.522 0.51,-0.612 4.102,-1.693 8.193,-3.416 12.335,-5.007 1.762,-0.677 3.634,-1.07 5.458,-1.582 3.618,-1.014 6.335,-3.277 8.476,-6.258 0.495,-0.688 0.678,-1.63 0.893,-2.483 0.746,-2.969 1.463,-5.944 2.154,-8.927 1.23,-5.307 3.688,-9.95 7.333,-14.001 2.147,-2.387 4.429,-4.686 5.866,-7.627 0.118,-0.241 0.312,-0.459 0.509,-0.648 2.062,-1.982 4.421,-3.498 7.167,-4.332 1.173,-0.356 2.347,-0.327 3.428,0.449 0.278,0.2 0.748,0.227 1.116,0.192 2.998,-0.275 5.985,-0.441 8.973,0.149 2.889,0.572 4.604,2.489 5.606,5.05 0.308,0.785 0.012,1.849 -0.148,2.761 -0.1,0.567 -0.066,0.91 0.372,1.347 2.229,2.218 4.068,4.743 5.578,7.497 0.315,0.575 0.594,1.264 0.589,1.897 -0.006,0.982 0.289,1.769 0.85,2.537 1.646,2.257 2.391,4.862 2.896,7.567 0.349,1.863 0.791,3.71 1.184,5.565 0.472,2.232 0.051,4.131 -1.759,5.729 -0.783,0.691 -1.213,1.783 -1.805,2.692 -0.264,0.404 -0.457,0.892 -0.81,1.193 -1.51,1.298 -3.008,2.621 -4.617,3.787 -4.304,3.119 -8.394,6.479 -12.109,10.287 -2.469,2.53 -5.366,4.422 -8.576,5.913 -2.269,1.054 -4.498,2.245 -6.599,3.601 -3.025,1.951 -6.381,3.104 -9.691,4.369 -4.608,1.76 -8.828,4.227 -12.967,6.862 -0.281,0.179 -0.67,0.188 -1.009,0.275 -0.035,-0.131 -0.065,-0.266 -0.095,-0.399 z" />
    </g>
  </g>
</svg>
