<?xml version="1.0" encoding="UTF-8" standalone="no"?>
<!-- Created with Inkscape (http://www.inkscape.org/) -->

<svg
   xmlns:dc="http://purl.org/dc/elements/1.1/"
   xmlns:cc="http://creativecommons.org/ns#"
   xmlns:rdf="http://www.w3.org/1999/02/22-rdf-syntax-ns#"
   xmlns:svg="http://www.w3.org/2000/svg"
   xmlns="http://www.w3.org/2000/svg"
   xmlns:sodipodi="http://sodipodi.sourceforge.net/DTD/sodipodi-0.dtd"
   xmlns:inkscape="http://www.inkscape.org/namespaces/inkscape"
   width="21.025555mm"
   height="21.025555mm"
   viewBox="0 0 74.499997 74.499997"
   id="svg3438"
   version="1.1"
   inkscape:version="0.91 r13725"
   sodipodi:docname="scissors.svg">
  <defs
     id="defs3440" />
  <sodipodi:namedview
     id="base"
     pagecolor="#ffffff"
     bordercolor="#666666"
     borderopacity="1.0"
     inkscape:pageopacity="0.0"
     inkscape:pageshadow="2"
     inkscape:zoom="0.35"
     inkscape:cx="-175.14286"
     inkscape:cy="298.4286"
     inkscape:document-units="px"
     inkscape:current-layer="layer1"
     showgrid="false"
     fit-margin-top="0"
     fit-margin-left="0"
     fit-margin-right="0"
     fit-margin-bottom="0"
     inkscape:window-width="1280"
     inkscape:window-height="1376"
     inkscape:window-x="0"
     inkscape:window-y="27"
     inkscape:window-maximized="0" />
  <metadata
     id="metadata3443">
    <rdf:RDF>
      <cc:Work
         rdf:about="">
        <dc:format>image/svg+xml</dc:format>
        <dc:type
           rdf:resource="http://purl.org/dc/dcmitype/StillImage" />
        <dc:title></dc:title>
      </cc:Work>
    </rdf:RDF>
  </metadata>
  <g
     inkscape:label="Layer 1"
     inkscape:groupmode="layer"
     id="layer1"
     transform="translate(-550.14285,-756.2908)">
    <g
       transform="translate(348.39285,605.5408)"
       style="fill:none;stroke:#ffffff;stroke-width:2.5"
       id="g42">
      <circle
         style="fill:#008000"
         id="circle44"
         r="36"
         cy="188"
         cx="239" />
      <path
         inkscape:connector-curvature="0"
         id="path46"
         d="m 268.58,187.535 c -0.11,0.271 -0.235,0.535 -0.325,0.81 -1.079,3.277 -4.289,5.031 -7.646,4.16 -2.506,-0.651 -4.987,-1.401 -7.514,-1.953 -3.066,-0.672 -6.068,-0.045 -9.019,0.806 -0.238,0.07 -0.514,0.498 -0.529,0.772 -0.247,4.23 0.567,8.22 2.803,11.874 0.771,1.259 1.484,2.552 2.262,3.808 2.151,3.471 0.456,8.387 -3.731,9.317 -0.124,0.027 -0.233,0.114 -0.35,0.173 -0.46,0 -0.92,0 -1.38,0 -1.921,-0.577 -3.631,-1.438 -4.82,-3.168 -2.111,-3.078 -1.38,-6.899 1.761,-8.664 0.552,-0.309 1.221,-0.45 1.854,-0.572 1.166,-0.221 1.55,-0.727 1.192,-1.862 -0.265,-0.841 -0.652,-1.645 -0.974,-2.47 -1.004,-2.564 -2.038,-5.117 -2.983,-7.704 -0.257,-0.706 -0.597,-0.966 -1.327,-1 -5.87,-0.264 -11.74,-0.537 -17.606,-0.862 -1.664,-0.095 -3.351,-0.224 -4.967,-0.601 -2.578,-0.6 -4.513,-2.386 -5.199,-4.582 9.071,0.3 18.084,0.601 27.276,0.903 -2.534,-8.776 -5.011,-17.359 -7.522,-26.057 2.312,0.278 3.988,1.369 5.163,3.113 0.741,1.098 1.357,2.337 1.76,3.598 1.961,6.158 3.843,12.343 5.719,18.528 0.222,0.733 0.538,1.013 1.337,1.101 3.194,0.349 6.375,0.811 9.561,1.227 0.39,0.051 0.784,0.11 1.175,0.104 1.019,-0.012 1.449,-0.483 1.335,-1.489 -0.539,-4.792 3.986,-7.412 8.049,-5.9 2.266,0.843 3.804,2.396 4.431,4.78 0.04,0.152 0.141,0.287 0.214,0.431 0,0.46 0,0.918 0,1.379 z m -6.613,2.477 c 2.143,0 3.753,-1.471 3.752,-3.425 -10e-4,-1.762 -1.833,-3.423 -3.772,-3.419 -1.942,0.003 -3.56,1.619 -3.572,3.563 -0.01,1.855 1.552,3.281 3.592,3.281 z m -21.915,20.783 c -0.007,1.901 1.663,3.654 3.495,3.667 1.804,0.015 3.189,-1.471 3.183,-3.413 -0.008,-2.019 -1.519,-3.721 -3.312,-3.727 -1.814,-0.006 -3.359,1.588 -3.366,3.473 z" />
    </g>
  </g>
</svg>
